<svg xmlns="http://www.w3.org/2000/svg" width="29" height="25" viewBox="0 0 29 25">
    <g fill="#000" fill-rule="nonzero">
        <path d="M10.595 16.488l4.618 1.4a.578.578 0 0 1-.03.094c-.123.336-.376.524-.788.588-1.518.242-4.035.089-4.059.089a.704.704 0 0 0-.088 1.406c.112.005 2.694.164 4.37-.106 1.665-.265 2.142-1.73 2.054-2.653a.707.707 0 0 0-.5-.612L11 15.129c-2.553-.77-5.353.653-5.47.712-.012.006-.03.012-.042.024L.342 18.976a.707.707 0 0 0 .365 1.312.757.757 0 0 0 .365-.1L6.195 17.1c.224-.118 2.477-1.194 4.4-.612z"/>
        <path d="M28.219 15.306c-.406-.741-1.671-1.924-3.589-1.077-1.811.806-5.64 2.647-5.682 2.665a.702.702 0 0 0-.33.941c.171.353.595.5.942.33.04-.018 3.847-1.853 5.64-2.647.513-.23.942-.23 1.313 0 .011.005.017.011.03.017l-9.595 7.03c-.682.5-1.547.705-2.376.576l-8.56-1.365a.726.726 0 0 0-.564.153l-2.165 1.806a.702.702 0 0 0-.088.994.706.706 0 0 0 .994.088l1.918-1.6 8.247 1.318a4.617 4.617 0 0 0 3.435-.83l10.235-7.493a.71.71 0 0 0 .195-.906zM15.142 14.494A4.115 4.115 0 1 0 12.23 7.47a4.115 4.115 0 0 0 2.912 7.024zM13.23 8.47a2.683 2.683 0 0 1 1.912-.794c.724 0 1.4.283 1.912.794a2.709 2.709 0 0 1 0 3.824 2.683 2.683 0 0 1-1.912.794c-.723 0-1.4-.282-1.912-.794a2.709 2.709 0 0 1 0-3.824zM19.972 6.453a3.213 3.213 0 0 0 0-6.424 3.213 3.213 0 0 0 0 6.424zM18.7 1.97c.341-.34.794-.529 1.276-.529.483 0 .936.188 1.277.53.7.7.7 1.847 0 2.547-.341.34-.794.529-1.277.529-.482 0-.935-.188-1.276-.53-.7-.705-.7-1.847 0-2.547z"/>
    </g>
</svg>
